<?xml version="1.0" standalone="no"?>
<!DOCTYPE svg PUBLIC "-//W3C//DTD SVG 1.1//EN" "http://www.w3.org/Graphics/SVG/1.1/DTD/svg11.dtd" >
<svg xmlns="http://www.w3.org/2000/svg">
<metadata>Generated by IcoMoon</metadata>
<defs>
<font id="icomoon" horiz-adv-x="1024">
<font-face units-per-em="1024" ascent="960" descent="-64" />
<missing-glyph horiz-adv-x="1024" />
<glyph unicode="&#x20;" horiz-adv-x="512" d="" />
<glyph unicode="&#xe900;" glyph-name="check" d="M330.437 899.348c288.295 123.668 656.542-94.129 662.843-412.751 34.658-271.36-205.982-534.843-479.705-521.058-259.151-14.178-496.64 221.735-484.037 480.886-9.058 195.348 120.911 382.031 300.898 452.923zM401.723 869.022c-158.326-44.111-288.295-181.169-318.228-343.434-50.806-240.64 144.935-491.914 387.545-510.425 244.578-30.326 482.068 188.258 475.766 433.625 7.089 271.36-282.782 499.397-545.083 420.234zM421.415 352.295c95.311 90.191 180.382 191.015 282.782 273.329l49.231-19.298c-88.222-137.058-224.886-234.338-333.982-354.068-63.803 59.077-144.542 114.215-154.782 208.738 55.926-30.72 107.126-68.923 156.751-108.702z" />
<glyph unicode="&#xe901;" glyph-name="design" horiz-adv-x="878" d="M245.029 960h85.211c0-24.32 0-48.64 0-72.96 36.571 0 73.143-0.183 109.714-0.366 0-9.326 0-27.977 0-37.303-36.571-0.183-72.96-0.366-109.531-0.366-0.183-23.771-0.366-47.543-0.549-71.314 24.503-0.366 49.006-0.549 73.509-0.914 0-9.326 0-27.794 0-36.937-24.503-0.366-48.823-0.549-73.143-0.914 0-23.771 0-47.543 0-71.314 36.571 0 73.143-0.183 109.897-0.366-0.183-9.326-0.183-27.977-0.183-37.303-35.291 0-70.766-0.183-106.057-0.183-13.897-23.954-27.611-47.909-41.509-71.863 36.937-0.183 74.057-0.183 110.994-0.366 0-9.143 0.183-27.794 0.183-37.12-45.897 0.366-91.794-1.28-137.509-2.743-66.56-123.429-145.006-239.909-211.383-363.52-36.937-59.429-13.349-150.126 55.223-173.897 53.76-12.251 109.714-7.131 164.389-8.046 153.417 2.194 306.834-2.56 460.069 1.829 50.651-2.011 98.377 37.303 104.594 87.771 10.423 56.137-18.469 107.886-46.446 153.966-72.046 117.76-141.349 236.983-213.76 354.377-13.166 23.954-29.806 48.091-29.44 76.434-3.474 104.411 0.914 209.006-0.731 313.417h83.749c-11.154-19.931-26.331-36.206-45.531-48.457 1.646-92.709-6.583-186.331 3.657-278.491 43.52-91.977 104.229-174.811 153.417-263.863 46.263-83.566 109.166-160 133.851-253.806v-60.709c-14.629-57.6-56.686-103.863-114.834-118.674h-644.023c-58.514 15.177-102.034 60.16-118.857 117.76v59.794c70.949 185.6 201.509 342.126 288 520.411 10.971 92.16 2.56 185.6 3.657 278.309-19.749 11.886-35.291 27.794-46.629 47.726zM260.937 446.903c118.491 2.011 236.983 1.28 355.474 0.366 53.76-93.257 112.457-183.406 166.034-276.846 24.137-40.594 29.806-98.926-5.669-134.949-25.783-26.514-65.28-25.783-99.657-26.697-158.903 0.366-317.989 0.549-476.891 0-34.56 1.28-74.606-1.097-101.303 24.869-35.109 37.12-26.331 95.634-2.011 136.229 52.663 93.44 111.543 183.406 164.023 277.029zM281.417 407.771c-51.2-99.657-121.051-189.074-166.217-291.657-15.36-43.886 25.051-76.069 66.194-69.486 177.92-0.366 356.023-4.023 533.76 1.829 44.434-0.549 61.623 54.491 40.96 88.32-47.909 93.257-110.080 178.469-159.086 270.994-105.143 4.206-210.469 4.023-315.611 0z" />
<glyph unicode="&#xe902;" glyph-name="free" d="M338.189 779.992c73.566 131.234 255.461 177.583 380.227 92.429 77.878-45.002 102.939-135.276 127.192-215.309 135.276-16.438 212.615-180.547 133.12-293.187-88.926-125.575-261.928-63.865-390.198-76.8l18.324 38.265c113.179 21.288 278.905-42.307 346.004 84.345 60.362 105.364-53.356 219.352-161.145 206.686 2.695 101.053-39.882 210.728-144.438 242.526-115.065 52.547-240.909-29.373-290.493-134.198-77.069 46.349-155.486 1.347-177.314-79.495-55.512-33.684-117.491-75.183-125.305-145.785-2.695-67.907 43.924-137.432 108.059-160.337 82.189-18.324 167.074-4.851 250.072-13.743l16.438-38.265c-115.335 10.24-256.539-37.726-350.316 51.469-87.040 71.68-88.926 228.514 6.198 294.265 47.697 32.876 79.495 81.112 116.143 124.497 36.918 36.379 91.621 21.288 137.432 22.636zM487.478 587.857c12.126 0 36.918-0.269 49.314-0.269 0.539-173.541-1.078-347.352 1.078-520.893 44.194 31.528 82.189 116.952 142.282 93.777-33.954-78.956-115.604-119.916-167.074-185.667-58.745 64.404-133.659 114.796-176.775 193.213 66.56 1.886 105.634-60.632 149.827-100.244 2.156 173.272 0.269 346.813 1.347 520.084z" />
<glyph unicode="&#xe903;" glyph-name="help" d="M424.96 929.745c237.615 47.942 492.451-108.684 556.218-342.342 54.924-178.967-4.422-386.095-146.851-507.811-133.353-119.389-334.662-154.065-500.829-87.273-183.855 68.887-313.949 258.793-310.458 455.447-5.818 230.4 175.011 445.44 401.92 481.978zM120.553 605.556c43.753-13.033 87.505-26.531 131.258-40.495 36.771 57.949 84.945 106.356 142.895 142.895-13.964 43.753-27.462 87.505-40.495 131.491-102.633-49.571-184.087-131.491-233.658-233.891zM669.556 839.447c-13.265-43.753-26.531-87.505-40.495-131.258 57.949-36.538 106.124-84.945 142.895-142.895 43.753 13.964 87.505 27.462 131.491 40.495-49.804 102.633-131.258 184.087-233.891 233.658zM450.56 646.982c-145.92-37.935-196.655-243.2-86.807-345.6 101.702-111.709 308.596-61.673 347.229 84.713 55.622 151.505-108.916 316.276-260.422 260.887zM120.785 290.211c49.571-102.4 131.025-184.087 233.658-233.658 13.033 43.753 26.531 87.505 40.495 131.258-57.949 36.771-106.356 84.945-142.895 142.895-43.753-13.964-87.505-27.462-131.258-40.495zM772.189 330.938c-36.538-58.182-85.178-106.124-142.895-142.895 13.964-43.753 27.462-87.505 40.495-131.258 102.633 49.338 184.087 131.258 233.658 233.658-43.753 13.033-87.505 26.531-131.258 40.495z" />
<glyph unicode="&#xe904;" glyph-name="idea" d="M188.632 698.88c46.080 138.24 171.385 253.575 323.368 247.646 151.444 6.198 275.672-108.598 323.368-245.221v-128.539c-40.691-108.867-133.12-189.709-162.762-303.158-13.743 17.785-27.486 35.84-40.96 53.625 54.434 102.4 157.912 189.171 156.025 313.128 1.617 175.697-200.219 321.213-365.137 252.497-130.156-44.733-220.16-194.829-175.697-329.836 36.109-85.423 98.358-156.295 144.977-235.789-13.204-18.055-26.408-35.84-39.882-53.625-30.989 112.64-121.533 194.021-163.301 301.811v127.461zM368.64 595.402c53.356 0.539 67.907-55.512 88.657-92.699 48.505-91.352 21.558-198.063 27.486-296.691 14.013-0.269 41.768-0.539 55.781-0.539 1.347 129.347-21.827 279.175 78.686 380.227l36.648 9.701c-74.105-118.568-71.68-255.461-64.674-390.198l31.528 3.773-20.211 50.931c16.707 1.617 50.122 4.851 66.56 6.737-5.659-27.756-16.977-82.998-22.636-110.484-88.657 2.695-177.044 2.156-265.701 1.078-10.779 37.457-26.678 72.488-47.427 105.095 29.642 0 59.554 0.269 89.465 0.539l-22.097-56.051 34.223-1.078c8.623 134.737 7.006 271.36-66.291 389.659zM403.402 130.291c72.219 1.617 144.168 1.617 216.387 0.269l1.347-38.804c-72.488-1.347-144.707-1.347-216.926 0.539l-0.808 37.996zM407.175 58.611c69.255 9.432 139.857 9.162 209.381 1.078l7.815-42.846c-74.914-0.269-149.827-0.539-224.741 0.808l7.545 40.96zM456.758-22.232c36.648 15.899 73.566 15.899 110.215 0-7.276-33.415-103.478-33.684-110.215 0z" />
<glyph unicode="&#xe905;" glyph-name="ionicons" d="M467.298 960h86.449c92.751-9.058 181.76-42.338 258.166-95.114 34.462 9.058 76.012 17.329 102.991-12.997 31.114-26.782 23.631-69.12 13.982-103.778 52.382-75.618 84.874-163.446 95.114-255.015v-87.040c-17.526-243.003-224.689-450.757-467.495-470.055h-86.252c-243.2 17.329-451.151 224.886-470.252 467.692v86.252c17.526 243.003 224.689 450.757 467.298 470.055zM336.148 885.76c-168.763-65.772-289.871-236.111-295.582-417.28-8.665-164.431 76.997-329.058 216.025-417.083 134.695-88.615 315.668-99.84 460.406-28.357 153.994 72.862 260.923 234.338 266.437 404.874 6.105 103.582-28.554 205.194-83.692 292.037-73.255-27.372-143.163 42.535-115.791 115.791-130.166 87.040-301.883 111.065-447.803 50.018zM440.123 673.871c130.954 46.277 285.538-47.655 305.428-184.714 29.342-138.831-90.978-282.978-232.96-277.858-127.015-4.529-242.018 110.474-237.292 237.489-2.166 100.431 68.923 196.332 164.825 225.083z" />
<glyph unicode="&#xe906;" glyph-name="photoshop" d="M162.743 886.857h697.6c-0.549-9.143-1.28-27.429-1.829-36.571-230.949 0-461.714 0-692.663 0-0.731 9.143-2.194 27.429-3.109 36.571zM91.429 813.531c280.32 0.366 560.823 0.183 841.143 0 0-8.96 0-27.246 0-36.206-280.32-0.183-560.823-0.183-841.143-0.183 0 9.143 0 27.429 0 36.389zM0 740.571c341.394 0 682.606 0 1024 0v-731.429h-1024v731.429zM37.669 702.72c0.183-218.88 0.183-437.943 0-656.823 316.526-0.549 633.051 0 949.76-0.183 0 219.063 0.183 438.126-0.183 657.189-316.526-0.183-633.051 0.183-949.577-0.183z" />
<glyph unicode="&#xe907;" glyph-name="pixel" d="M72.32 960h297.28c-5.76-50.56-11.84-101.12-18.56-151.36-15.040 50.24-29.12 100.48-42.56 151.040l-236.16 0.32zM115.2 862.080c40.96 16.32 98.24-43.2 77.12-82.88-40.64-16.64-97.6 43.2-77.12 82.88zM488.96 775.36c-24.32 46.72 43.52 116.8 90.88 91.84 25.6-47.040-43.84-115.84-90.88-91.84zM253.44 636.48c29.44 31.68 59.52 62.72 90.24 93.12 229.12-223.68 449.28-456 680.32-677.76v-21.12c-36.16-17.92-71.36-38.080-107.2-57.28-220.8 221.12-441.6 442.24-663.36 663.040zM392.96 590.080c143.68-209.28 352-363.52 520.64-552.32 11.84 1.92 35.84 5.12 48 6.72-190.080 180.8-357.12 388.8-568.64 545.6zM0 666.56c39.36-6.72 102.72 16.32 125.12-27.2-22.080-44.16-85.76-20.16-125.12-25.6v52.8zM582.72 657.28c29.44 33.92 129.6 8.32 90.24-43.84-29.12-36.16-128.96-8.32-90.24 43.84zM151.36 486.080c91.52 33.28 44.8-109.44-22.080-96.64-55.36 11.84-12.16 85.12 22.080 96.64zM320.32 407.68c50.88 43.2 80-56.96 46.72-87.68-49.92-43.52-80.64 57.28-46.72 87.68z" />
<glyph unicode="&#xe908;" glyph-name="phone" d="M704 320c-64-64-64-128-128-128s-128 64-192 128-128 128-128 192 64 64 128 128-128 256-192 256-192-192-192-192c0-128 131.5-387.5 256-512s384-256 512-256c0 0 192 128 192 192s-192 256-256 192z" />
<glyph unicode="&#xe909;" glyph-name="location" d="M512 960c-176.732 0-320-143.268-320-320 0-320 320-704 320-704s320 384 320 704c0 176.732-143.27 320-320 320zM512 448c-106.040 0-192 85.96-192 192s85.96 192 192 192 192-85.96 192-192-85.96-192-192-192z" />
<glyph unicode="&#xe90a;" glyph-name="sphere" d="M480 896c-265.096 0-480-214.904-480-480 0-265.098 214.904-480 480-480 265.098 0 480 214.902 480 480 0 265.096-214.902 480-480 480zM751.59 256c8.58 40.454 13.996 83.392 15.758 128h127.446c-3.336-44.196-13.624-87.114-30.68-128h-112.524zM208.41 576c-8.58-40.454-13.996-83.392-15.758-128h-127.444c3.336 44.194 13.622 87.114 30.678 128h112.524zM686.036 576c9.614-40.962 15.398-83.854 17.28-128h-191.316v128h174.036zM512 640v187.338c14.59-4.246 29.044-11.37 43.228-21.37 26.582-18.74 52.012-47.608 73.54-83.486 14.882-24.802 27.752-52.416 38.496-82.484h-155.264zM331.232 722.484c21.528 35.878 46.956 64.748 73.54 83.486 14.182 10 28.638 17.124 43.228 21.37v-187.34h-155.264c10.746 30.066 23.616 57.68 38.496 82.484zM448 576v-128h-191.314c1.88 44.146 7.666 87.038 17.278 128h174.036zM95.888 256c-17.056 40.886-27.342 83.804-30.678 128h127.444c1.762-44.608 7.178-87.546 15.758-128h-112.524zM256.686 384h191.314v-128h-174.036c-9.612 40.96-15.398 83.854-17.278 128zM448 192v-187.34c-14.588 4.246-29.044 11.372-43.228 21.37-26.584 18.74-52.014 47.61-73.54 83.486-14.882 24.804-27.75 52.418-38.498 82.484h155.266zM628.768 109.516c-21.528-35.876-46.958-64.746-73.54-83.486-14.184-9.998-28.638-17.124-43.228-21.37v187.34h155.266c-10.746-30.066-23.616-57.68-38.498-82.484zM512 256v128h191.314c-1.88-44.146-7.666-87.040-17.28-128h-174.034zM767.348 448c-1.762 44.608-7.178 87.546-15.758 128h112.524c17.056-40.886 27.344-83.806 30.68-128h-127.446zM830.658 640h-95.9c-18.638 58.762-44.376 110.294-75.316 151.428 42.536-20.34 81.058-47.616 114.714-81.272 21.48-21.478 40.362-44.938 56.502-70.156zM185.844 710.156c33.658 33.658 72.18 60.932 114.714 81.272-30.942-41.134-56.676-92.666-75.316-151.428h-95.898c16.138 25.218 35.022 48.678 56.5 70.156zM129.344 192h95.898c18.64-58.762 44.376-110.294 75.318-151.43-42.536 20.34-81.058 47.616-114.714 81.274-21.48 21.478-40.364 44.938-56.502 70.156zM774.156 121.844c-33.656-33.658-72.18-60.934-114.714-81.274 30.942 41.134 56.678 92.668 75.316 151.43h95.9c-16.14-25.218-35.022-48.678-56.502-70.156z" />
<glyph unicode="&#xe90b;" glyph-name="facebook" d="M672 768c-88.366 0-160-71.634-160-160v-96h-128v-128h128v-448h128v448h144l32 128h-176v96c0 17.672 14.326 32 32 32h160v128h-160z" />
<glyph unicode="&#xe90c;" glyph-name="instagram" d="M854 960h-684c-93.5 0-170-76.5-170-170v-684c0-93.5 76.5-170 170-170h684c93.5 0 170 76.5 170 170v684c0 93.5-76.5 170-170 170zM327.8 512h368.4c6.988-20.058 10.8-41.59 10.8-64 0-107.524-87.476-195-195-195s-195 87.476-195 195c0 22.41 3.812 43.942 10.8 64zM896 511.95v-383.95c0-35.2-28.8-64-64-64h-640c-35.2 0-64 28.8-64 64v384h100.108c-4.642-20.602-7.108-42.016-7.108-64 0-160.458 130.542-291 291-291s291 130.542 291 291c0 21.984-2.464 43.398-7.108 64l100.108-0.050zM896 736c0-17.6-14.4-32-32-32h-64c-17.6 0-32 14.4-32 32v64c0 17.6 14.4 32 32 32h64c17.6 0 32-14.4 32-32v-64z" />
<glyph unicode="&#xe90d;" glyph-name="twitter" d="M1024 765.582c-37.676-16.708-78.164-28.002-120.66-33.080 43.372 26 76.686 67.17 92.372 116.23-40.596-24.078-85.556-41.56-133.41-50.98-38.32 40.83-92.922 66.34-153.346 66.34-116.022 0-210.088-94.058-210.088-210.078 0-16.466 1.858-32.5 5.44-47.878-174.6 8.764-329.402 92.4-433.018 219.506-18.084-31.028-28.446-67.116-28.446-105.618 0-72.888 37.088-137.192 93.46-174.866-34.438 1.092-66.832 10.542-95.154 26.278-0.020-0.876-0.020-1.756-0.020-2.642 0-101.788 72.418-186.696 168.522-206-17.626-4.8-36.188-7.372-55.348-7.372-13.538 0-26.698 1.32-39.528 3.772 26.736-83.46 104.32-144.206 196.252-145.896-71.9-56.35-162.486-89.934-260.916-89.934-16.958 0-33.68 0.994-50.116 2.94 92.972-59.61 203.402-94.394 322.042-94.394 386.422 0 597.736 320.124 597.736 597.744 0 9.108-0.206 18.168-0.61 27.18 41.056 29.62 76.672 66.62 104.836 108.748z" />
<glyph unicode="&#xe90e;" glyph-name="dribbble" d="M512.002-64c-282.32 0-512.002 229.682-512.002 512s229.682 512 512.002 512c282.322 0 511.998-229.682 511.998-512s-229.676-512-511.998-512zM943.798 377.914c-14.962 4.72-135.364 40.632-272.41 18.698 57.204-157.186 80.478-285.208 84.958-311.808 98.114 66.336 167.958 171.426 187.452 293.11zM682.832 44.762c-6.506 38.37-31.898 172.090-93.298 331.64-0.96-0.328-1.922-0.64-2.88-0.972-246.67-85.958-335.216-257.016-343.086-273.104 74.15-57.824 167.336-92.32 268.436-92.32 60.58 0 118.318 12.39 170.828 34.756zM187.098 154.922c9.908 16.96 129.93 215.684 355.476 288.594 5.704 1.84 11.448 3.57 17.236 5.2-10.98 24.844-22.94 49.714-35.456 74.216-218.398-65.36-430.324-62.63-449.46-62.236-0.132-4.442-0.222-8.89-0.222-13.366 0-112.32 42.58-214.874 112.426-292.408zM83.912 536.904c19.558-0.26 199.736-1.042 404.302 53.282-72.46 128.812-150.612 237.11-162.142 252.92-122.348-57.708-213.802-170.496-242.16-306.202zM409.518 872.5c12.088-16.184 91.518-124.348 163.18-256.014 155.508 58.284 221.34 146.77 229.208 157.974-77.23 68.518-178.782 110.2-289.902 110.2-35.29 0-69.6-4.232-102.486-12.16zM850.522 723.888c-9.216-12.474-82.504-106.418-244.202-172.434 10.178-20.832 19.934-42.018 29.016-63.344 3.216-7.56 6.354-15.084 9.418-22.57 145.518 18.298 290.104-11.028 304.526-14.078-0.968 103.224-37.85 198.010-98.758 272.426z" />
<glyph unicode="&#xe90f;" glyph-name="github2" d="M0 403.59c0-46.398 4.34-88.38 13.022-125.934 8.678-37.554 20.696-70.184 36.052-97.892s34.884-52.078 58.586-73.108c23.7-21.032 49.406-38.224 77.112-51.576 27.706-13.35 59.336-24.198 94.888-32.546 35.552-8.346 71.856-14.188 108.91-17.528 37.054-3.338 77.78-5.006 122.178-5.006 44.732 0 85.628 1.668 122.68 5.006 37.054 3.34 73.442 9.184 109.16 17.528s67.512 19.192 95.388 32.546c27.876 13.354 53.746 30.544 77.616 51.576 23.87 21.030 43.566 45.404 59.086 73.108s27.622 60.336 36.302 97.892c8.68 37.556 13.020 79.536 13.020 125.934 0 82.788-27.708 154.394-83.118 214.816 3.004 8.012 5.758 17.108 8.262 27.29s4.84 24.702 7.010 43.564c2.17 18.862 1.336 40.642-2.504 65.346-3.838 24.704-10.932 49.906-21.284 75.612l-7.51 1.502c-5.342 1-14.106 0.75-26.29-0.752s-26.372-4.506-42.562-9.014c-16.19-4.506-37.054-13.186-62.592-26.038s-52.494-28.958-80.87-48.32c-48.736 13.352-115.668 20.030-200.792 20.030-84.792 0-151.556-6.678-200.294-20.030-28.376 19.362-55.5 35.468-81.37 48.32s-46.484 21.532-61.84 26.038c-15.354 4.508-29.71 7.428-43.062 8.764-13.354 1.336-21.784 1.752-25.288 1.252s-6.26-1.086-8.262-1.752c-10.348-25.706-17.442-50.906-21.28-75.612-3.838-24.704-4.674-46.486-2.504-65.346s4.508-33.382 7.010-43.564c2.504-10.182 5.258-19.278 8.262-27.29-55.414-60.422-83.122-132.026-83.122-214.816zM125.684 277.906c0 48.070 21.866 92.136 65.596 132.194 13.018 12.020 28.208 21.114 45.566 27.292 17.358 6.176 36.97 9.68 58.836 10.516 21.866 0.834 42.812 0.668 62.842-0.502 20.028-1.168 44.732-2.754 74.108-4.756 29.376-2.004 54.748-3.004 76.112-3.004 21.366 0 46.736 1 76.112 3.004 29.378 2.002 54.078 3.588 74.11 4.756 20.030 1.17 40.974 1.336 62.842 0.502 21.866-0.836 41.476-4.34 58.838-10.516 17.356-6.176 32.544-15.27 45.564-27.292 43.73-39.394 65.598-83.456 65.598-132.194 0-28.712-3.59-54.162-10.768-76.364-7.178-22.2-16.358-40.81-27.542-55.83s-26.704-27.79-46.568-38.306c-19.862-10.516-39.222-18.61-58.084-24.288-18.862-5.674-43.066-10.098-72.608-13.27-29.546-3.172-55.916-5.092-79.118-5.758-23.2-0.668-52.66-1.002-88.378-1.002s-65.178 0.334-88.378 1.002c-23.2 0.666-49.574 2.586-79.116 5.758s-53.744 7.596-72.606 13.27c-18.86 5.678-38.222 13.774-58.084 24.288s-35.386 23.282-46.568 38.306c-11.182 15.022-20.364 33.63-27.54 55.83-7.178 22.202-10.766 47.656-10.766 76.364zM640 288c0 53.019 28.654 96 64 96s64-42.981 64-96c0-53.019-28.654-96-64-96s-64 42.981-64 96zM256 288c0 53.019 28.654 96 64 96s64-42.981 64-96c0-53.019-28.654-96-64-96s-64 42.981-64 96z" />
<glyph unicode="&#xe910;" glyph-name="mail" d="M101.798 779.294h851.727c-2.409-71.68-68.066-106.616-118.664-144.866-76.8-51.501-133.421-127.096-210.522-177.995-40.96-27.106-61.741-89.449-116.856-88.546-134.927 109.929-250.278 246.664-400.866 335.209-1.205 19.275-3.614 57.224-4.819 76.198zM0 711.228c129.205-57.224 203.595-189.44 323.162-263.228-72.584-96.376-188.235-148.781-260.216-246.362-15.661-6.024-47.285-17.769-62.946-23.793v533.384zM701.139 446.795c114.748 79.812 216.847 176.188 322.861 267.144v-549.647c-112.038 89.148-207.511 196.969-322.861 282.504zM346.654 375.718c74.692 24.395 107.219-64.753 161.732-95.774 76.198 6.626 96.979 126.494 187.332 100.593 73.487-102.701 195.162-157.816 265.035-263.831h-865.882c3.614 12.047 10.541 36.442 14.155 48.489 79.511 68.668 165.346 132.819 237.628 210.522z" />
<glyph unicode="&#xe911;" glyph-name="paperplane" d="M1009.376 954.88c-5.312 3.424-11.36 5.12-17.376 5.12-6.176 0-12.384-1.76-17.76-5.376l-960-640c-9.888-6.56-15.328-18.112-14.048-29.952 1.216-11.808 8.896-22.016 19.936-26.368l250.368-100.192 117.728-206.016c5.632-9.888 16.096-16 27.424-16.128 0.128 0 0.224 0 0.352 0 11.232 0 21.664 5.952 27.424 15.552l66.464 110.816 310.24-124.064c3.808-1.536 7.808-2.272 11.872-2.272 5.44 0 10.816 1.376 15.68 4.128 8.448 4.736 14.24 13.056 15.872 22.624l160 960c2.080 12.576-3.488 25.184-14.176 32.128zM100.352 295.136l741.6 494.432-539.2-577.184c-2.848 1.696-5.376 3.936-8.512 5.184l-193.888 77.568zM326.048 189.888c-0.064 0.128-0.16 0.192-0.224 0.32l606.176 648.8-516.768-805.184-89.184 156.064zM806.944 12.512l-273.312 109.312c-6.496 2.56-13.248 3.424-19.936 3.808l420.864 652.416-127.616-765.536z" />
<glyph unicode="&#xe912;" glyph-name="logo" horiz-adv-x="4608" d="M3763.2 960h219.648c7.168-135.168 8.704-270.336 5.632-405.504 103.936 134.144 208.384 268.288 317.44 398.336 100.352-1.536 200.192-2.048 300.544-2.56-125.44-162.816-258.048-320.512-394.24-474.112 126.464-172.544 267.776-333.312 395.776-504.32v-35.84h-281.088c-112.64 120.832-176.64 290.816-324.608 374.272-10.24-124.416-13.824-249.344-13.312-374.272h-247.808c13.312 340.992-28.672 686.080 22.016 1024zM36.864 948.224c86.528 2.56 173.056 4.608 259.584 6.656 64.512-207.872 92.672-425.472 167.936-629.76 59.392 205.824 112.64 413.696 162.816 622.080 64 1.536 128 4.608 191.488 8.192 64.512-217.6 113.664-439.808 184.32-655.36 39.424 219.648 98.816 434.688 147.968 652.288 90.624-0.512 181.76-1.024 272.384-2.048-92.672-338.944-189.44-676.352-286.72-1013.76l42.496-0.512h-294.912c-54.272 201.728-100.352 404.992-152.576 607.232-62.464-200.192-102.4-406.016-161.28-607.232h-250.88c-93.696 337.408-201.728 671.232-282.624 1012.224zM1692.16 951.808c95.744-0.512 190.976 0 286.72 1.536 132.608-338.432 260.096-678.912 392.704-1017.344h-274.432c-16.896 40.448-51.712 121.856-68.608 162.816-128 1.024-256 1.536-383.488 1.536-23.552-55.296-48.64-110.080-74.24-164.352h-266.752c122.88 340.992 254.976 678.912 388.096 1015.808zM1817.6 647.68c-32.768-111.104-68.096-221.696-104.96-331.776 80.896-1.024 161.792-2.048 242.688-3.072-36.864 114.176-57.856 241.152-137.728 334.848zM2449.92 953.344c187.392-8.192 375.808 7.68 562.176-12.288 257.536-41.472 331.776-411.648 145.92-574.464-129.024-121.344-316.928-69.12-475.648-77.312-2.048-117.76-3.072-235.52-3.584-353.28h-238.080c4.096 338.944-10.24 678.912 9.216 1017.344zM2678.784 735.232c0.512-78.848 1.536-157.184 2.56-235.52 123.904-1.536 327.168-33.28 339.968 140.8-73.728 122.368-222.72 94.72-342.528 94.72zM3371.52 953.856c76.288-1.024 152.576-1.536 228.864-2.56 1.024-338.432 0.512-676.864 0.512-1015.296h-238.592c4.096 339.456-10.24 678.912 9.216 1017.856z" />
</font>
</defs>
</svg>
